<mxfile host="app.diagrams.net" modified="2024-03-12T13:13:28.463Z" agent="Mozilla/5.0 (X11; Linux x86_64; rv:123.0) Gecko/20100101 Firefox/123.0" etag="f2N7xZsWPtR4DIBCMHH0" version="24.0.2" type="github">
  <diagram name="Page-1" id="51PEagXw1sYwZtZuC4bm">
    <mxGraphModel dx="1883" dy="1556" grid="1" gridSize="10" guides="1" tooltips="1" connect="1" arrows="1" fold="1" page="1" pageScale="1" pageWidth="1169" pageHeight="827" math="0" shadow="0">
      <root>
        <mxCell id="0" />
        <mxCell id="1" parent="0" />
        <mxCell id="PQwBD4DDwZsJVSDzbPhe-4" value="n" style="edgeStyle=orthogonalEdgeStyle;rounded=0;orthogonalLoop=1;jettySize=auto;html=1;" parent="1" source="PQwBD4DDwZsJVSDzbPhe-2" target="PQwBD4DDwZsJVSDzbPhe-3" edge="1">
          <mxGeometry relative="1" as="geometry" />
        </mxCell>
        <mxCell id="PQwBD4DDwZsJVSDzbPhe-2" value="m" style="rounded=0;whiteSpace=wrap;html=1;" parent="1" vertex="1">
          <mxGeometry x="260" y="120" width="120" height="60" as="geometry" />
        </mxCell>
        <mxCell id="PQwBD4DDwZsJVSDzbPhe-3" value="&quot;human action that potentially prevents the computation of a correct result&quot;" style="rounded=0;whiteSpace=wrap;html=1;" parent="1" vertex="1">
          <mxGeometry x="470" y="120" width="270" height="60" as="geometry" />
        </mxCell>
        <mxCell id="PQwBD4DDwZsJVSDzbPhe-10" value="n" style="edgeStyle=orthogonalEdgeStyle;rounded=0;orthogonalLoop=1;jettySize=auto;html=1;" parent="1" source="PQwBD4DDwZsJVSDzbPhe-8" target="PQwBD4DDwZsJVSDzbPhe-9" edge="1">
          <mxGeometry relative="1" as="geometry" />
        </mxCell>
        <mxCell id="PQwBD4DDwZsJVSDzbPhe-12" value="i 1" style="edgeStyle=orthogonalEdgeStyle;rounded=0;orthogonalLoop=1;jettySize=auto;html=1;" parent="1" source="PQwBD4DDwZsJVSDzbPhe-8" target="PQwBD4DDwZsJVSDzbPhe-2" edge="1">
          <mxGeometry relative="1" as="geometry">
            <Array as="points">
              <mxPoint x="290" y="380" />
            </Array>
          </mxGeometry>
        </mxCell>
        <mxCell id="PQwBD4DDwZsJVSDzbPhe-8" value="m_a" style="rounded=0;whiteSpace=wrap;html=1;" parent="1" vertex="1">
          <mxGeometry x="120" y="350" width="120" height="60" as="geometry" />
        </mxCell>
        <mxCell id="PQwBD4DDwZsJVSDzbPhe-9" value="&quot;a mistake happening during the analysis&quot;" style="rounded=0;whiteSpace=wrap;html=1;" parent="1" vertex="1">
          <mxGeometry x="-50" y="350" width="120" height="60" as="geometry" />
        </mxCell>
        <mxCell id="PQwBD4DDwZsJVSDzbPhe-14" value="i 1" style="edgeStyle=orthogonalEdgeStyle;rounded=0;orthogonalLoop=1;jettySize=auto;html=1;" parent="1" source="PQwBD4DDwZsJVSDzbPhe-13" target="PQwBD4DDwZsJVSDzbPhe-2" edge="1">
          <mxGeometry relative="1" as="geometry" />
        </mxCell>
        <mxCell id="PQwBD4DDwZsJVSDzbPhe-16" value="n" style="edgeStyle=orthogonalEdgeStyle;rounded=0;orthogonalLoop=1;jettySize=auto;html=1;" parent="1" source="PQwBD4DDwZsJVSDzbPhe-13" target="PQwBD4DDwZsJVSDzbPhe-15" edge="1">
          <mxGeometry relative="1" as="geometry" />
        </mxCell>
        <mxCell id="PQwBD4DDwZsJVSDzbPhe-13" value="m_r" style="rounded=0;whiteSpace=wrap;html=1;" parent="1" vertex="1">
          <mxGeometry x="420" y="350" width="120" height="60" as="geometry" />
        </mxCell>
        <mxCell id="PQwBD4DDwZsJVSDzbPhe-15" value="&quot;a mistake that did cause an incorrect result in a particular instance&quot;" style="rounded=0;whiteSpace=wrap;html=1;" parent="1" vertex="1">
          <mxGeometry x="590" y="350" width="120" height="60" as="geometry" />
        </mxCell>
        <mxCell id="PQwBD4DDwZsJVSDzbPhe-18" value="i 1" style="edgeStyle=orthogonalEdgeStyle;rounded=0;orthogonalLoop=1;jettySize=auto;html=1;" parent="1" source="PQwBD4DDwZsJVSDzbPhe-17" target="PQwBD4DDwZsJVSDzbPhe-13" edge="1">
          <mxGeometry relative="1" as="geometry" />
        </mxCell>
        <mxCell id="PQwBD4DDwZsJVSDzbPhe-19" value="i 1" style="edgeStyle=orthogonalEdgeStyle;rounded=0;orthogonalLoop=1;jettySize=auto;html=1;" parent="1" source="PQwBD4DDwZsJVSDzbPhe-17" target="PQwBD4DDwZsJVSDzbPhe-8" edge="1">
          <mxGeometry relative="1" as="geometry" />
        </mxCell>
        <mxCell id="PQwBD4DDwZsJVSDzbPhe-24" value="n" style="edgeStyle=orthogonalEdgeStyle;rounded=0;orthogonalLoop=1;jettySize=auto;html=1;" parent="1" source="PQwBD4DDwZsJVSDzbPhe-17" target="PQwBD4DDwZsJVSDzbPhe-23" edge="1">
          <mxGeometry relative="1" as="geometry" />
        </mxCell>
        <mxCell id="PQwBD4DDwZsJVSDzbPhe-17" value="m_a,r" style="rounded=0;whiteSpace=wrap;html=1;" parent="1" vertex="1">
          <mxGeometry x="260" y="510" width="120" height="60" as="geometry" />
        </mxCell>
        <mxCell id="PQwBD4DDwZsJVSDzbPhe-23" value="&quot;analysis mistake&quot;" style="rounded=0;whiteSpace=wrap;html=1;" parent="1" vertex="1">
          <mxGeometry x="260" y="630" width="120" height="60" as="geometry" />
        </mxCell>
        <mxCell id="VSVdpnFQ6Lm-19f5LBRc-2" value="Analyst: Florian, Felix" style="text;html=1;align=center;verticalAlign=middle;resizable=0;points=[];autosize=1;strokeColor=none;fillColor=none;" parent="1" vertex="1">
          <mxGeometry x="790" y="8" width="140" height="30" as="geometry" />
        </mxCell>
        <mxCell id="VSVdpnFQ6Lm-19f5LBRc-9" value="i 1" style="edgeStyle=orthogonalEdgeStyle;rounded=0;orthogonalLoop=1;jettySize=auto;html=1;" parent="1" source="VSVdpnFQ6Lm-19f5LBRc-6" target="PQwBD4DDwZsJVSDzbPhe-2" edge="1">
          <mxGeometry relative="1" as="geometry" />
        </mxCell>
        <mxCell id="VSVdpnFQ6Lm-19f5LBRc-11" style="edgeStyle=orthogonalEdgeStyle;rounded=0;orthogonalLoop=1;jettySize=auto;html=1;" parent="1" source="VSVdpnFQ6Lm-19f5LBRc-6" target="VSVdpnFQ6Lm-19f5LBRc-10" edge="1">
          <mxGeometry relative="1" as="geometry" />
        </mxCell>
        <mxCell id="VSVdpnFQ6Lm-19f5LBRc-6" value="m_n" style="rounded=0;whiteSpace=wrap;html=1;" parent="1" vertex="1">
          <mxGeometry x="260" y="-80" width="120" height="60" as="geometry" />
        </mxCell>
        <mxCell id="VSVdpnFQ6Lm-19f5LBRc-10" value="&quot;a mistake that did not prevent a result from being calculated, but resulted in a numerical wrong result&quot;" style="rounded=0;whiteSpace=wrap;html=1;" parent="1" vertex="1">
          <mxGeometry x="500" y="-95" width="120" height="90" as="geometry" />
        </mxCell>
        <mxCell id="VSVdpnFQ6Lm-19f5LBRc-15" style="edgeStyle=orthogonalEdgeStyle;rounded=0;orthogonalLoop=1;jettySize=auto;html=1;" parent="1" source="VSVdpnFQ6Lm-19f5LBRc-13" target="VSVdpnFQ6Lm-19f5LBRc-14" edge="1">
          <mxGeometry relative="1" as="geometry" />
        </mxCell>
        <mxCell id="VSVdpnFQ6Lm-19f5LBRc-13" value="res_corr" style="rounded=0;whiteSpace=wrap;html=1;" parent="1" vertex="1">
          <mxGeometry x="659" y="960" width="120" height="60" as="geometry" />
        </mxCell>
        <mxCell id="VSVdpnFQ6Lm-19f5LBRc-14" value="&quot;correct result&quot;" style="rounded=0;whiteSpace=wrap;html=1;" parent="1" vertex="1">
          <mxGeometry x="849" y="960" width="120" height="60" as="geometry" />
        </mxCell>
        <mxCell id="VSVdpnFQ6Lm-19f5LBRc-18" style="edgeStyle=orthogonalEdgeStyle;rounded=0;orthogonalLoop=1;jettySize=auto;html=1;" parent="1" source="VSVdpnFQ6Lm-19f5LBRc-16" target="VSVdpnFQ6Lm-19f5LBRc-17" edge="1">
          <mxGeometry relative="1" as="geometry" />
        </mxCell>
        <mxCell id="VSVdpnFQ6Lm-19f5LBRc-16" value="analysis_intent" style="rounded=0;whiteSpace=wrap;html=1;" parent="1" vertex="1">
          <mxGeometry x="659" y="1050" width="120" height="60" as="geometry" />
        </mxCell>
        <mxCell id="VSVdpnFQ6Lm-19f5LBRc-17" value="&quot;intended analysis&quot;" style="rounded=0;whiteSpace=wrap;html=1;" parent="1" vertex="1">
          <mxGeometry x="849" y="1050" width="120" height="60" as="geometry" />
        </mxCell>
        <mxCell id="VSVdpnFQ6Lm-19f5LBRc-21" style="edgeStyle=orthogonalEdgeStyle;rounded=0;orthogonalLoop=1;jettySize=auto;html=1;" parent="1" source="VSVdpnFQ6Lm-19f5LBRc-19" target="VSVdpnFQ6Lm-19f5LBRc-20" edge="1">
          <mxGeometry relative="1" as="geometry" />
        </mxCell>
        <mxCell id="VSVdpnFQ6Lm-19f5LBRc-19" value="in" style="rounded=0;whiteSpace=wrap;html=1;" parent="1" vertex="1">
          <mxGeometry x="659" y="1210" width="120" height="60" as="geometry" />
        </mxCell>
        <mxCell id="VSVdpnFQ6Lm-19f5LBRc-20" value="&quot;Daten&quot;" style="rounded=0;whiteSpace=wrap;html=1;" parent="1" vertex="1">
          <mxGeometry x="839" y="1210" width="120" height="60" as="geometry" />
        </mxCell>
        <mxCell id="VSVdpnFQ6Lm-19f5LBRc-24" value="i 1" style="edgeStyle=orthogonalEdgeStyle;rounded=0;orthogonalLoop=1;jettySize=auto;html=1;" parent="1" source="VSVdpnFQ6Lm-19f5LBRc-22" target="VSVdpnFQ6Lm-19f5LBRc-23" edge="1">
          <mxGeometry relative="1" as="geometry" />
        </mxCell>
        <mxCell id="VSVdpnFQ6Lm-19f5LBRc-22" value="res_corr" style="rounded=0;whiteSpace=wrap;html=1;" parent="1" vertex="1">
          <mxGeometry x="350" y="1615" width="120" height="60" as="geometry" />
        </mxCell>
        <mxCell id="VSVdpnFQ6Lm-19f5LBRc-23" value="" style="rounded=0;whiteSpace=wrap;html=1;fillColor=none;" parent="1" vertex="1">
          <mxGeometry x="570" y="1510" width="620" height="270" as="geometry" />
        </mxCell>
        <mxCell id="VSVdpnFQ6Lm-19f5LBRc-25" style="edgeStyle=orthogonalEdgeStyle;rounded=0;orthogonalLoop=1;jettySize=auto;html=1;" parent="1" source="VSVdpnFQ6Lm-19f5LBRc-26" target="VSVdpnFQ6Lm-19f5LBRc-27" edge="1">
          <mxGeometry relative="1" as="geometry" />
        </mxCell>
        <mxCell id="VSVdpnFQ6Lm-19f5LBRc-26" value="analysis_implement" style="rounded=0;whiteSpace=wrap;html=1;" parent="1" vertex="1">
          <mxGeometry x="659" y="1130" width="120" height="60" as="geometry" />
        </mxCell>
        <mxCell id="VSVdpnFQ6Lm-19f5LBRc-27" value="&quot;implemented analysis&quot;" style="rounded=0;whiteSpace=wrap;html=1;" parent="1" vertex="1">
          <mxGeometry x="849" y="1130" width="120" height="60" as="geometry" />
        </mxCell>
        <mxCell id="VSVdpnFQ6Lm-19f5LBRc-28" value="spec" style="rounded=0;whiteSpace=wrap;html=1;" parent="1" vertex="1">
          <mxGeometry x="1120" y="960" width="120" height="60" as="geometry" />
        </mxCell>
        <mxCell id="VSVdpnFQ6Lm-19f5LBRc-29" style="edgeStyle=orthogonalEdgeStyle;rounded=0;orthogonalLoop=1;jettySize=auto;html=1;" parent="1" source="VSVdpnFQ6Lm-19f5LBRc-30" target="VSVdpnFQ6Lm-19f5LBRc-31" edge="1">
          <mxGeometry relative="1" as="geometry" />
        </mxCell>
        <mxCell id="VSVdpnFQ6Lm-19f5LBRc-33" style="edgeStyle=orthogonalEdgeStyle;rounded=0;orthogonalLoop=1;jettySize=auto;html=1;" parent="1" source="VSVdpnFQ6Lm-19f5LBRc-30" target="VSVdpnFQ6Lm-19f5LBRc-32" edge="1">
          <mxGeometry relative="1" as="geometry" />
        </mxCell>
        <mxCell id="VSVdpnFQ6Lm-19f5LBRc-30" value="spec" style="rounded=0;whiteSpace=wrap;html=1;" parent="1" vertex="1">
          <mxGeometry x="649" y="880" width="120" height="60" as="geometry" />
        </mxCell>
        <mxCell id="VSVdpnFQ6Lm-19f5LBRc-31" value="&quot;Specification&quot;" style="rounded=0;whiteSpace=wrap;html=1;" parent="1" vertex="1">
          <mxGeometry x="839" y="880" width="120" height="60" as="geometry" />
        </mxCell>
        <mxCell id="VSVdpnFQ6Lm-19f5LBRc-32" value="&quot;a description of the desired behavior&quot;" style="rounded=0;whiteSpace=wrap;html=1;" parent="1" vertex="1">
          <mxGeometry x="460" y="880" width="120" height="60" as="geometry" />
        </mxCell>
      </root>
    </mxGraphModel>
  </diagram>
</mxfile>
